<mxfile host="app.diagrams.net" modified="2024-01-09T07:53:20.041Z" agent="Mozilla/5.0 (Windows NT 10.0; Win64; x64) AppleWebKit/537.36 (KHTML, like Gecko) Chrome/120.0.0.0 Safari/537.36" version="22.1.17" etag="B24nkF3mkWQZaS-MM-Be" type="github">
  <diagram name="Страница — 1" id="ue0Mvx8t22XN5eFTSZpM">
    <mxGraphModel>
      <root>
        <mxCell id="0" />
        <mxCell id="1" parent="0" />
      </root>
    </mxGraphModel>
  </diagram>
</mxfile>
